<svg xmlns="http://www.w3.org/2000/svg" xmlns:xlink="http://www.w3.org/1999/xlink" width="260.162" height="184.413" enable-background="new 0 0 260.162 184.413" overflow="visible" viewBox="0 0 260.162 184.413" xml:space="preserve"><metadata><variableSets xmlns="http://ns.adobe.com/Variables/1.0/"><variableSet locked="none" varSetName="binding1"><variables/><v:sampleDataSets xmlns="http://ns.adobe.com/GenericCustomNamespace/1.0/" xmlns:v="http://ns.adobe.com/Variables/1.0/"/></variableSet></variableSets><sfw xmlns="http://ns.adobe.com/SaveForWeb/1.0/"><slices/><sliceSourceBounds width="260.162" height="184.413" x="176.714" y="302.294" bottomLeftOrigin="true"/></sfw><?xpacket begin='﻿' id='W5M0MpCehiHzreSzNTczkc9d'?><?xpacket end='w'?></metadata><switch><g><g id="colors"><path fill="#F8DC75" d="M237.682,33.617c-0.019-5.071,0.402-24.5-2.5-30.4 c-7.869,2.99-19.189,11.68-22.431,21.588c-15.532-2.32-35.042-2.045-50.381,0.608C159.808,14.753,147.946,7.596,138.243,3 c-4.093,6.907-3.906,19.92-3.445,31.279c-0.018,0.013-0.037,0.024-0.054,0.037c1.8,47.7,22.2,74.399,52.799,92.399 c31.481-17.988,50.972-49.057,50.101-93.12C237.656,33.603,237.67,33.609,237.682,33.617z M216.485,25.421 c0.114,0.021,0.229,0.042,0.344,0.064C216.715,25.463,216.601,25.441,216.485,25.421z M214.527,25.083 c0.275,0.044,0.554,0.094,0.83,0.141C215.081,25.177,214.805,25.129,214.527,25.083z"/><path fill="#D2A41F" d="M91.013,133.328c46.474,4.115,90.927,22.883,141.085,49.085h25.598l0.361,0.191 c0.516-2.575-1.888-6.025-4.752-9.229c-4.941-5.528-11.623-6.145-19.707-5.951c-5.738-6.83-41.004-43.861-41.004-43.861 l-4.808,3.395c-38.75-21.75-49.155-62.513-49.155-62.513c-33.792,8.148-69.78,28.334-90.391,49.761l-3.118,3.292 c-1.489,1.597-2.928,3.174-4.312,4.723C18.967,146.661,3,170.87,3,175.213v2.25h23.816l-0.505-0.668 c-2.449-12.943,4.443-23.341,10.279-30.385c4.179-5.044,11.1-9.801,21.968-12.457L91.013,133.328z"/></g><g id="tomcat"><path d="M240.682,32.617c-0.019-5.071-1.598-26.5-4.5-32.4c-7.869,2.99-22.189,12.68-25.431,22.588 c-15.532-2.32-33.042-2.045-48.381,0.608C159.808,12.753,146.946,4.596,137.243,0c-4.093,6.907-5.906,22.92-5.445,34.279 c-0.018,0.013-0.037,0.024-0.054,0.037c1.8,47.7,25.2,77.399,55.799,95.399c31.481-17.988,53.972-53.057,53.101-97.12 C240.656,32.603,240.67,32.609,240.682,32.617z M214.485,23.421c0.114,0.021,0.229,0.042,0.344,0.064 C214.715,23.463,214.601,23.441,214.485,23.421z M212.527,23.083c0.275,0.044,0.554,0.094,0.83,0.141 C213.081,23.177,212.805,23.129,212.527,23.083z M235.784,36.059c0.81,39.69-19.44,71.279-47.79,87.48 c-48.118-23.977-57.183-84.71-48.977-117.289c2.283,12.454,6.424,20.266,15.394,24.098c19.533-5.591,46.423-6.033,66.231-0.57 c8.255-6.001,11.456-15.169,13.204-23.18C236.029,15.921,235.777,36.055,235.784,36.059z"/><g><rect width="26.245" height="3.239" x="133.209" y="90.51"/><rect width="26.245" height="3.24" x="133.209" y="82.732"/><rect width="26.244" height="3.239" x="213.35" y="90.51"/><rect width="26.244" height="3.24" x="213.35" y="82.732"/><g><path d="M204.1,63.524h-27.188h-3.021h-12.561v-2.917h13.31c1.639-7.018,1.963-13.725-0.014-17.125 c-0.844-1.446-2.01-2.121-3.674-2.121c-7.609,0-10.753,8.046-10.884,8.389l0.002-0.003l-2.73-1.024 c0.156-0.42,3.965-10.278,13.612-10.278c2.692,0,4.834,1.235,6.191,3.57c2.41,4.141,2.127,11.305,0.494,18.592l23.354,0 c3.103-9.116,9.581-13.414,20.405-13.414v2.916c-11.732,0-15.019,4.973-17.366,10.498l12.743,0l-0.029,2.901L204.1,63.524z"/><path d="M206.017,77.925l0.019-0.003c-3.459-5.101-4.555-9.456-3.108-14.413l-2.971,0.015 c-1.035,3.3-0.62,8.273,1.929,12.54H172.21c1.806-3.616,3.479-8.025,4.702-12.54h-3.021 c-1.348,4.786-3.241,9.524-5.372,13.277l-0.689,1.213l16.652,10.482l-9.375,6.178l1.605,2.436l10.479-6.908l11.312,7.382 l1.554-2.468l-10.488-6.488c0,0,15.682-10.187,16.461-10.684C206.024,77.937,206.021,77.931,206.017,77.925z M187.156,86.733 l-12.317-7.755l24.071,0.006L187.156,86.733z"/></g></g><polygon points="114.745 73.635 122.087 95.391 99.788 80.434"/><polygon points="93.261 83.153 101.147 96.75 84.559 88.32"/><polygon points="75.313 93.759 79.12 107.356 67.699 99.47"/><polygon points="196.871 130.199 189.801 141.077 202.31 135.366"/><polygon points="208.021 142.709 196.6 151.411 212.372 147.332"/><polygon points="180.282 24.686 188.713 43.178 194.151 24.414"/><polygon points="137.588 51.608 150.913 58.678 138.947 59.494"/><polygon points="140.851 66.021 149.009 69.284 142.211 71.188"/><polygon points="236.031 56.775 225.153 61.398 234.127 62.757"/><polygon points="231.68 70.1 223.25 72.548 230.048 74.995"/><path d="M256.305,173.375c-4.941-5.528-14.623-8.145-22.707-7.951c-5.738-6.83-39.004-41.861-39.004-41.861 l-2.306,2.903l40.162,43.238l1.743-0.149c10.912-0.935,17.115,4.983,18.757,6.819c1.204,1.347,1.931,2.575,2.326,3.539h-22.075 c-50.624-26.416-95.078-45.044-142.297-49.112c0.104-6.571,1.273-14.01,3.518-22.299l-4.343-1.177 c-2.308,8.521-3.523,16.236-3.661,23.133c-4.92-0.326-9.872-0.495-14.868-0.495c-4.237,0-8.095,0.394-11.614,1.077 c-4.59-4.587-8.5-8.959-11.823-13.108c21.936-22.85,58.15-43.498,89.533-51.092l-1.015-4.396 c-33.792,8.148-70.78,30.334-91.391,51.761c-9.565-12.91-13.36-23.504-14.487-31.532c-1.424-10.14,0.997-19.441,6.999-26.899 C47.15,44.099,60.502,43.277,74.23,45.586c-0.268,2.167,0.017,4.24,0.885,5.522c3.631,5.363,23.144,7.246,34.791,2.049 c-8.595-12.045-26.006-17.926-30.83-15.569c-1.598,0.781-2.804,2.214-3.63,3.886c-4.745-0.849-9.458-1.48-12.903-1.455 c-12.107,0.088-21.363,4.319-28.296,12.932c-6.802,8.451-9.551,18.944-7.95,30.347c1.516,10.8,6.863,22.286,15.825,34.198 c-1.489,1.597-2.928,3.174-4.312,4.723C15.967,146.661,0,172.87,0,177.213v2.25h28.816l-0.505-2.668 c-1.627-8.601,1.623-19.351,8.279-27.385c4.179-5.044,11.1-10.801,21.968-13.457c9.663,9.431,21.975,19.446,35.679,29.109 h21.414v-2.25c0-2.539-1.259-4.762-3.545-6.257c-3.383-2.212-8.605-2.517-13.402-0.881c-4.573-5.093-7.137-11.896-7.691-20.347 c46.474,4.115,90.927,22.883,141.085,49.085h27.598l0.361-1.809C260.572,180.029,259.169,176.579,256.305,173.375z M33.125,146.539c-6.816,8.227-10.429,19.094-9.601,28.424H5.372c3.647-7.894,18.176-30.712,39.644-53.76 c2.958,3.656,6.253,7.35,9.872,11.073C44.347,135.444,37.437,141.336,33.125,146.539z"/></g></g></switch></svg>